<?xml version="1.0" encoding="utf-8"?>
<!-- Generator: Adobe Illustrator 22.0.1, SVG Export Plug-In . SVG Version: 6.00 Build 0)  -->
<svg version="1.1" id="Layer_1" xmlns="http://www.w3.org/2000/svg" xmlns:xlink="http://www.w3.org/1999/xlink" x="0px" y="0px"
	 viewBox="0 0 330 145" style="enable-background:new 0 0 330 145;" xml:space="preserve">
<style type="text/css">
	.st0{fill:#C9C9C9;}
	.st1{fill-rule:evenodd;clip-rule:evenodd;fill:#821111;}
	.st2{opacity:0.2;}
	.st3{fill:#7A1A1A;}
	.st4{fill-rule:evenodd;clip-rule:evenodd;fill:#7A1A1A;}
	.st5{opacity:0.2;fill:#7A1A1A;}
	.st6{fill:#A32929;}
	.st7{fill-rule:evenodd;clip-rule:evenodd;fill:#A32929;}
	.st8{opacity:0.2;fill:#281B1B;}
</style>
<g>
	<path class="st0" d="M104,70.9c-3.9,15,8.2,36.8,15.3,46c27.6,30.7,82.8-3.1,95.1-24.5c12.3-21.5,6.1-49.1-6.1-73.6
		C196-5.8,141.1,0.1,135,21.6C123,63.3,113.5,33.9,104,70.9L104,70.9z M104,70.9"/>
	<rect x="203.3" y="104" class="st1" width="5.9" height="11.7"/>
	<rect x="203.3" y="133.3" class="st1" width="5.9" height="11.7"/>
	<rect x="215" y="121.6" class="st1" width="11.7" height="5.9"/>
	<rect x="185.7" y="121.6" class="st1" width="11.7" height="5.9"/>
	<g>
		<g class="st2">
			<path class="st3" d="M131.5,7.4c-1.3-1-3.1-1.1-4.6-0.3c-1.5,0.8-2.4,2.3-2.4,3.9v114.2c0,1.6,0.9,3.1,2.3,3.9
				c1.4,0.8,3.2,0.7,4.5-0.2l82-55.7c1.2-0.8,1.9-2.1,1.9-3.6c0-1.4-0.7-2.8-1.8-3.6L131.5,7.4z M131.5,7.4"/>
			<path class="st4" d="M127,7.1c1.5-0.8,3.2-0.6,4.6,0.3l82,58.6c1.2,0.8,1.9,2.2,1.8,3.6c0,1.4-0.7,2.8-1.9,3.6l-82,55.7
				c-1.6,1.1-3.8,1-5.3-0.3c-1-0.9-1.5-2.2-1.5-3.5l0-114C124.6,9.3,125.5,7.8,127,7.1L127,7.1z M133.4,19.8v96.8
				c0,0.1,0.1,0.2,0.2,0.1l69.5-47.2c0.1-0.1,0.1-0.2,0-0.3l-69.5-49.6C133.5,19.6,133.4,19.7,133.4,19.8z M133.4,19.5"/>
			<path class="st5" d="M124.6,70.4v54.9c0,1.6,0.9,3.1,2.3,3.9c1.4,0.8,3.2,0.7,4.5-0.2l82-55.7c1-0.7,1.6-1.7,1.8-2.9H124.6z"/>
		</g>
		<g>
			<g>
				<path class="st6" d="M123.8,0.8c-1.3-1-3.1-1.1-4.6-0.3s-2.4,2.3-2.4,3.9v114.2c0,1.6,0.9,3.1,2.3,3.9c1.4,0.8,3.2,0.7,4.5-0.2
					l82-55.7c1.2-0.8,1.9-2.1,1.9-3.6c0-1.4-0.7-2.8-1.8-3.6L123.8,0.8z M123.8,0.8"/>
				<path class="st7" d="M119.3,0.5c1.5-0.8,3.2-0.6,4.6,0.3l82,58.6c1.2,0.8,1.9,2.2,1.8,3.6c0,1.4-0.7,2.8-1.9,3.6l-82,55.7
					c-1.6,1.1-3.8,1-5.3-0.3c-1-0.9-1.5-2.2-1.5-3.5l0-114C116.9,2.7,117.8,1.2,119.3,0.5L119.3,0.5z M125.7,13.2V110
					c0,0.1,0.1,0.2,0.2,0.1L195.4,63c0.1-0.1,0.1-0.2,0-0.3l-69.5-49.6C125.8,13,125.7,13.1,125.7,13.2z M125.7,12.9"/>
				<path class="st8" d="M116.9,63.8v54.9c0,1.6,0.9,3.1,2.3,3.9c1.4,0.8,3.2,0.7,4.5-0.2l82-55.7c1-0.7,1.6-1.7,1.8-2.9H116.9z"/>
			</g>
		</g>
	</g>
</g>
</svg>
